<svg width="796" height="310" viewBox="0 0 796 310" fill="none" xmlns="http://www.w3.org/2000/svg">
<path d="M736.076 66.1704L785.944 50.277L746.762 104.07L736.076 66.1704Z" fill="#0C94FF"/>
<path d="M752.698 124.861L736.076 66.1773L619.717 303.356L752.698 124.861Z" fill="#0B6FBD"/>
<path d="M752.699 124.856L574.598 7.48877L695.707 200.655L752.699 124.856Z" fill="#0C94FF"/>
<path d="M0.533203 192.561C2.36411 206.199 9.23003 217.109 21.131 225.065C33.0319 233.02 47.908 237.111 65.9883 237.111C98.9447 237.111 121.144 222.792 121.144 201.653C121.144 181.651 107.642 170.741 65.0728 163.467C32.3453 158.012 24.335 154.148 24.335 145.056C24.335 134.146 38.2957 125.736 56.8337 125.736C79.4912 125.736 95.7406 135.964 100.089 152.33L117.483 148.92C113.363 126.645 87.7303 109.825 56.8337 109.825C27.3103 109.825 5.79707 125.281 5.79707 145.056C5.79707 164.376 18.6135 173.014 61.411 179.833C94.8251 185.288 102.378 190.288 102.378 201.88C102.378 213.7 88.6458 221.201 65.9883 221.201C38.5246 221.201 21.8175 210.29 17.9269 188.697L0.533203 192.561ZM139.827 201.426C139.827 223.473 156.534 237.111 184.685 237.111C203.909 237.111 221.532 229.61 229.771 218.473H230.229V233.702H248.309V149.148C248.309 125.281 228.627 109.825 197.73 109.825C182.396 109.825 169.58 113.689 159.281 121.19C148.982 128.691 142.803 138.692 140.514 151.193L158.594 155.057C162.256 136.874 176.674 126.191 197.73 126.191C216.268 126.191 228.169 133.691 228.169 145.284C228.169 155.057 219.701 158.921 189.033 164.376C154.246 170.513 139.827 180.514 139.827 201.426ZM229.542 191.652C229.542 206.881 210.089 220.519 188.575 220.519C168.435 220.519 158.823 214.382 158.823 201.426C158.823 189.834 169.122 184.151 196.815 178.696C216.955 174.832 225.651 171.423 229.084 165.286H229.542V191.652ZM295.702 218.7C305.543 230.292 322.25 237.111 341.246 237.111C379.008 237.111 406.243 210.745 406.243 173.468C406.243 137.328 378.779 109.825 342.39 109.825C323.394 109.825 306.458 116.644 296.388 128.464H295.931V67.7755H277.164V233.702H295.244V218.7H295.702ZM387.476 173.468C387.476 202.335 369.167 220.746 340.101 220.746C315.384 220.746 295.931 203.699 295.931 182.56V164.376C295.931 143.238 315.613 126.191 341.246 126.191C368.938 126.191 387.476 144.829 387.476 173.468ZM457.854 284.843L544.135 113.235H522.622L478.68 203.699H478.223L433.823 113.235H412.081L468.153 223.701L436.569 284.843H457.854Y" fill="#333333"/>
</svg>
